# xmcd
#
# Track frame offsets: 
#        187
#        23200
#        44135
#        61575
#        83935
#        102452
#        122620
#        145675
#        167400
#        185560
#        205250
#        230260
#
# Disc length: 3387 seconds
#
# Revision: 0
# Processed by: cddbd v1.5.2PL0 Copyright (c) Steve Scherf et al.
# Submitted via: ExactAudioCopy v1.0b3
#
DISCID=9e0d390c
DTITLE=Various Artist - Xuan Di Le Chua
DYEAR=1994
DGENRE=
TTITLE0=Duy Khanh - Xuan nay con khong ve
TTITLE1=Huong Lan - Mua Xuan dau tien
TTITLE2=Ngoc Lan - Canh thiep dau Xuan
TTITLE3=Giao Linh - Thu Xuan tren rung cao
TTITLE4=Khanh Ly - Anh cho em mua Xuan
TTITLE5=Ngoc Minh - Mua Xuan goi em
TTITLE6=Huong Lan - Toi chua co mua Xuan
TTITLE7=Tuan Vu - Thu Xuan
TTITLE8=Thanh Tuyen - Phut giao mua
TTITLE9=Ngoc Trong - Tinh Xuan cho que huong
TTITLE10=Giao Linh - Cau chuyen dau nam
TTITLE11=Carol Kim - Mua Xuan tren cao
EXTD=
EXTT0=
EXTT1=
EXTT2=
EXTT3=
EXTT4=
EXTT5=
EXTT6=
EXTT7=
EXTT8=
EXTT9=
EXTT10=
EXTT11=
PLAYORDER=
